<svg width="16" height="16" viewBox="0 0 16 16" fill="none" xmlns="http://www.w3.org/2000/svg">
<path fill-rule="evenodd" clip-rule="evenodd" d="M8 13C5.23858 13 3 10.7614 3 8C3 5.23858 5.23858 3 8 3C9.70086 3 11.2034 3.84926 12.1066 5.14687L7.94112 8.68752L5.64759 6.73802L4.35229 8.2619L7.94112 11.3124L12.9162 7.08358C12.9712 7.38067 13 7.68697 13 8C13 10.7614 10.7614 13 8 13ZM14.5974 5.65456C14.8581 6.3878 15 7.17733 15 8C15 11.866 11.866 15 8 15C4.13401 15 1 11.866 1 8C1 4.13401 4.13401 1 8 1C10.3113 1 12.3609 2.12015 13.6356 3.84718L13.6356 3.84717C14.0394 4.39418 14.3654 5.00208 14.5974 5.65456L14.5974 5.65456Z" fill="#666666"/>
</svg>
