<svg xmlns="http://www.w3.org/2000/svg" width="16" height="16" fill="none" xmlns:v="https://vecta.io/nano"><path d="M2 1h12v14H2V1z" stroke="#000" stroke-width="2"/><mask id="A" fill="#fff"><path d="M5 7h6v2H5V7z"/></mask><path d="M5 7V5H3v2h2zm6 0h2V5h-2v2zM5 9H3v2h2V9zm6 0v2h2V9h-2zM5 9h6V5H5v4zm3-2H5v4h3V7zM7 9V7H3v2h4zm2-2v2h4V7H9zm2 0H8v4h3V7z" fill="#000" mask="url(#A)"/><mask id="B" fill="#fff"><path d="M5 10h6v2H5v-2z"/></mask><path d="M5 10V8H3v2h2zm6 0h2V8h-2v2zm-6 2H3v2h2v-2zm6 0v2h2v-2h-2zm-6 0h6V8H5v4zm3-2H5v4h3v-4zm-1 2v-2H3v2h4zm2-2v2h4v-2H9zm2 0H8v4h3v-4z" fill="#000" mask="url(#B)"/></svg>