<svg xmlns="http://www.w3.org/2000/svg" width="16" height="16" fill="#000" xmlns:v="https://vecta.io/nano"><path fill-rule="evenodd" d="M4 8a4 4 0 1 0 8 0 4 4 0 1 0-8 0zm4-6a6 6 0 1 0 0 12A6 6 0 1 0 8 2z"/><path d="M7 0h2v4H7V0zm0 12h2v4H7v-4zm9-5v2h-4V7h4zM4 7v2H0V7h4zm8.95-5.364l1.414 1.414-2.828 2.828-1.414-1.414 2.83-2.828zM4.464 10.12l1.414 1.414-2.828 2.828-1.414-1.414 2.828-2.828zm9.9 2.83l-1.414 1.414-2.828-2.828 1.414-1.414 2.83 2.828zM5.88 4.464L4.464 5.88 1.636 3.05 3.05 1.636l2.83 2.828z"/></svg>